<?xml version="1.0" ?><!DOCTYPE svg  PUBLIC '-//W3C//DTD SVG 1.1//EN'  'http://www.w3.org/Graphics/SVG/1.1/DTD/svg11.dtd'><svg height="6.82666in" style="shape-rendering:geometricPrecision; text-rendering:geometricPrecision; image-rendering:optimizeQuality; fill-rule:evenodd; clip-rule:evenodd" viewBox="0 0 6827 6827" width="6.82666in" xml:space="preserve" xmlns="http://www.w3.org/2000/svg" xmlns:xlink="http://www.w3.org/1999/xlink"><defs><style type="text/css">
   <![CDATA[
    .fil4 {fill:none}
    .fil1 {fill:#80CBC4}
    .fil2 {fill:#F6FFFD}
    .fil3 {fill:#FAC23C}
    .fil0 {fill:#013668;fill-rule:nonzero}
   ]]>
  </style></defs><g id="Layer_x0020_1"><g id="_272699704"><path class="fil0" d="M3413 853c707,0 1347,287 1810,750 463,463 750,1103 750,1810 0,707 -287,1347 -750,1810 -463,463 -1103,750 -1810,750 -707,0 -1347,-287 -1810,-750 -463,-463 -750,-1103 -750,-1810 0,-707 287,-1347 750,-1810 463,-463 1103,-750 1810,-750zm1691 869c-433,-433 -1031,-700 -1691,-700 -660,0 -1258,268 -1691,700 -433,433 -700,1031 -700,1691 0,660 268,1258 700,1691 433,433 1031,700 1691,700 660,0 1258,-268 1691,-700 433,-433 700,-1031 700,-1691 0,-660 -268,-1258 -700,-1691z"/><path class="fil0" d="M2520 4809c5,-332 241,-544 543,-636 116,-36 242,-53 366,-53 125,0 250,18 366,53 304,93 541,307 543,642 0,46 -37,84 -84,84 -13,0 -25,-3 -36,-8l0 0c-304,-144 -548,-217 -789,-218 -241,-1 -485,71 -788,218 -42,20 -92,3 -112,-39 -7,-14 -9,-29 -8,-43zm592 -476c-189,58 -345,172 -401,340 263,-113 490,-169 718,-168 229,1 455,57 718,169 -56,-169 -212,-283 -402,-342 -99,-30 -207,-46 -317,-46 -109,0 -218,15 -317,46z"/><path class="fil0" d="M2049 3042c57,82 133,139 217,170 52,19 107,29 161,29 55,0 109,-10 161,-29 83,-31 160,-88 216,-170l-756 0zm158 327c-160,-59 -299,-185 -372,-375 -5,-11 -8,-24 -8,-37 0,-47 38,-84 84,-84l1030 0 0 0c10,0 20,2 29,5 44,16 66,65 49,108 -73,196 -213,323 -373,383 -71,26 -145,39 -220,39 -75,0 -149,-13 -220,-40z"/><path class="fil0" d="M4053 3042c57,82 133,139 217,170 52,19 107,29 161,29 55,0 109,-10 161,-29 83,-31 160,-88 216,-170l-756 0zm158 327c-160,-59 -299,-185 -372,-375 -5,-11 -8,-24 -8,-37 0,-47 38,-84 84,-84l1030 0 0 0c10,0 20,2 29,5 44,16 66,65 49,108 -73,196 -213,323 -373,383 -71,26 -145,39 -220,39 -75,0 -149,-13 -220,-40z"/><path class="fil0" d="M4071 2027c-17,-43 4,-92 47,-109 43,-17 92,4 109,47 0,1 149,389 697,347 46,-3 87,31 90,78 3,46 -31,87 -78,90 -672,51 -865,-452 -866,-453z"/><path class="fil0" d="M2630 1965c17,-43 66,-64 109,-47 43,17 64,66 47,109 -1,1 -194,504 -866,453 -46,-3 -81,-44 -78,-90 3,-46 44,-81 90,-78 548,42 697,-346 697,-347z"/></g><path class="fil1" d="M2630 1965c17,-43 66,-64 109,-47 43,17 64,66 47,109 -1,1 -194,504 -866,453 -46,-3 -81,-44 -78,-90 3,-46 44,-81 90,-78 548,42 697,-346 697,-347zm2474 -243c-433,-433 -1031,-700 -1691,-700 -660,0 -1258,268 -1691,700 -433,433 -700,1031 -700,1691 0,660 268,1258 700,1691 433,433 1031,700 1691,700 660,0 1258,-268 1691,-700 433,-433 700,-1031 700,-1691 0,-660 -268,-1258 -700,-1691zm-1033 305c-17,-43 4,-92 47,-109 43,-17 92,4 109,47 0,1 149,389 697,347 46,-3 87,31 90,78 3,46 -31,87 -78,90 -672,51 -865,-452 -866,-453zm-156 846l1030 0 0 0c10,0 20,2 29,5 44,16 66,65 49,108 -73,196 -213,323 -373,383 -71,26 -145,39 -220,39 -75,0 -149,-13 -220,-40 -160,-59 -299,-185 -372,-375 -5,-11 -8,-24 -8,-37 0,-47 38,-84 84,-84zm-2004 0l1030 0 0 0c10,0 20,2 29,5 44,16 66,65 49,108 -73,196 -213,323 -373,383 -71,26 -145,39 -220,39 -75,0 -149,-13 -220,-40 -160,-59 -299,-185 -372,-375 -5,-11 -8,-24 -8,-37 0,-47 38,-84 84,-84zm608 1936c5,-332 241,-544 543,-636 116,-36 242,-53 366,-53 125,0 250,18 366,53 304,93 541,307 543,642 0,46 -37,84 -84,84 -13,0 -25,-3 -36,-8l0 0c-304,-144 -548,-217 -789,-218 -241,-1 -485,71 -788,218 -42,20 -92,3 -112,-39 -7,-14 -9,-29 -8,-43z"/><path class="fil2" d="M2805 3042l-756 0c57,82 133,139 217,170 52,19 107,29 161,29 55,0 109,-10 161,-29 83,-31 160,-88 216,-170z"/><path class="fil2" d="M4053 3042c57,82 133,139 217,170 52,19 107,29 161,29 55,0 109,-10 161,-29 83,-31 160,-88 216,-170l-756 0z"/><path class="fil3" d="M3745 4333c-99,-30 -207,-46 -317,-46 -109,0 -218,15 -317,46 -189,58 -345,172 -401,340 263,-113 490,-169 718,-168 229,1 455,57 718,169 -56,-169 -212,-283 -402,-342z"/></g><rect class="fil4" height="6827" width="6827"/></svg>